<?xml version="1.0" encoding="utf-8"?>
<!-- Generator: Adobe Illustrator 17.1.0, SVG Export Plug-In . SVG Version: 6.00 Build 0)  -->
<!DOCTYPE svg PUBLIC "-//W3C//DTD SVG 1.1//EN" "http://www.w3.org/Graphics/SVG/1.1/DTD/svg11.dtd">
<svg version="1.1" id="Layer_1" xmlns="http://www.w3.org/2000/svg" xmlns:xlink="http://www.w3.org/1999/xlink" x="0px" y="0px"
	 viewBox="0 0 144 144" enable-background="new 0 0 144 144" xml:space="preserve">
<g>
	<linearGradient id="SVGID_1_" gradientUnits="userSpaceOnUse" x1="78.4573" y1="112.8072" x2="50.3197" y2="20.7735">
		<stop  offset="0" style="stop-color:#AD2955;stop-opacity:0.78"/>
		<stop  offset="0.1162" style="stop-color:#BE324B;stop-opacity:0.8455"/>
		<stop  offset="0.3904" style="stop-color:#E6492B"/>
		<stop  offset="0.9412" style="stop-color:#C73535;stop-opacity:0.73"/>
	</linearGradient>
	<path fill="url(#SVGID_1_)" d="M113,82.6c-1.6,2.6-3.5,5.1-5.7,7.4l0.1,0.1l-2,1.9c-8.9,8.3-20.8,12.9-33.4,12.9
		c-12.6,0-24.4-4.6-33.3-12.8c-8.9-8.3-13.8-19.3-13.8-31c0-0.9,0-1.7,0.1-2.6c0-0.1,0-0.2,0-0.4l0,0c0-0.1,0-0.2,0-0.2l0,0
		c0-0.2,0-0.4,0-0.5c0-0.1,0-0.3,0-0.5c0-0.2,0.1-0.5,0.1-0.7c0-0.1,0-0.3,0.1-0.4c0-0.2,0.1-0.4,0.1-0.6c0-0.1,0-0.2,0.1-0.4
		c0-0.2,0.1-0.4,0.1-0.6c0-0.1,0-0.2,0.1-0.4c0-0.1,0-0.2,0.1-0.3c0-0.1,0.1-0.3,0.1-0.5c0-0.1,0.1-0.3,0.1-0.4
		c0-0.2,0.1-0.3,0.1-0.5c0.3-1.2,0.6-2.4,1-3.6l0,0c0-0.2,0.1-0.3,0.2-0.5c0-0.1,0.1-0.3,0.1-0.4c0.3-0.8,0.6-1.5,0.9-2.3
		c0-0.1,0.1-0.2,0.1-0.3c0-0.1,0.1-0.2,0.2-0.4c0.1-0.1,0.1-0.3,0.2-0.5c0.1-0.1,0.1-0.3,0.2-0.4l0-0.1c0.1-0.2,0.2-0.4,0.3-0.5
		c0.1-0.1,0.1-0.3,0.2-0.4c1.2-2.4,2.6-4.7,4.3-6.9l0.3-0.3c0.2-0.2,0.4-0.5,0.6-0.7c0.1-0.1,0.2-0.2,0.3-0.3
		c0.2-0.2,0.4-0.5,0.6-0.7c0.1-0.1,0.2-0.3,0.4-0.4c0.1-0.1,0.2-0.3,0.4-0.4c0.1-0.1,0.3-0.3,0.4-0.4c0.1-0.2,0.3-0.3,0.4-0.5
		l-5.5-5.2C22,36,17,48.2,17,60.9c0,13.7,5.7,26.5,16.1,36.2c10.4,9.7,24.2,15,38.9,15c14.7,0,28.6-5.4,39-15.1
		c3-2.8,5.6-5.8,7.8-9.1L113,82.6z"/>
	<linearGradient id="SVGID_2_" gradientUnits="userSpaceOnUse" x1="72.0211" y1="101.5382" x2="49.457" y2="27.7343">
		<stop  offset="0" style="stop-color:#AD2955;stop-opacity:0.78"/>
		<stop  offset="0.1162" style="stop-color:#BE324B;stop-opacity:0.8455"/>
		<stop  offset="0.3904" style="stop-color:#E6492B"/>
		<stop  offset="0.9412" style="stop-color:#C73535;stop-opacity:0.73"/>
	</linearGradient>
	<path fill="url(#SVGID_2_)" d="M42.6,88.2c7.8,7.3,18.2,11.3,29.3,11.3c0.3,0,0.7,0,1,0c0.2,0,0.3,0,0.5,0h0c0.3,0,0.5,0,0.8,0
		c0.2,0,0.4,0,0.6,0c0.1,0,0.2,0,0.3,0l0.1,0c0.2,0,0.4,0,0.6,0c0.2,0,0.3,0,0.5,0c0.1,0,0.2,0,0.3,0l0.2,0c0.1,0,0.3,0,0.4,0
		c0.5-0.1,1-0.1,1.5-0.2c0.1,0,0.3,0,0.4-0.1l0,0c0.1,0,0.2,0,0.3-0.1l0.1,0c0.1,0,0.3-0.1,0.4-0.1c0.4-0.1,0.7-0.1,1.1-0.2
		c0.2-0.1,0.5-0.1,0.7-0.2l0,0c0.1,0,0.1,0,0.2,0c0.2,0,0.3-0.1,0.5-0.1c0.1,0,0.3-0.1,0.4-0.1c0.1,0,0.2-0.1,0.3-0.1
		c0.1,0,0.2,0,0.2-0.1l0.1,0c0.1,0,0.2-0.1,0.3-0.1c0.2,0,0.3-0.1,0.5-0.1c0.1,0,0.2-0.1,0.3-0.1c0.3-0.1,0.7-0.2,1-0.3
		c0.1,0,0.2-0.1,0.3-0.1l0.1,0c0.1,0,0.2-0.1,0.3-0.1c0.2-0.1,0.3-0.1,0.5-0.2c0.1,0,0.2-0.1,0.4-0.1c0.2-0.1,0.4-0.2,0.6-0.2
		l0.6-0.2c0.2-0.1,0.4-0.1,0.5-0.2c0.1,0,0.2-0.1,0.3-0.1l0.1,0c0.1-0.1,0.3-0.1,0.4-0.2c0.9-0.4,1.7-0.8,2.6-1.2
		c0.1,0,0.2-0.1,0.3-0.1c0.2-0.1,0.4-0.2,0.6-0.3l0.9-0.5c0.4-0.2,0.9-0.5,1.3-0.8c0.1-0.1,0.3-0.2,0.4-0.3l0.1,0
		c0.1-0.1,0.2-0.1,0.3-0.2l0,0c0.1,0,0.1-0.1,0.2-0.1l0,0c0.1-0.1,0.2-0.2,0.4-0.2c0.1-0.1,0.3-0.2,0.4-0.3c0.1-0.1,0.2-0.1,0.2-0.2
		l0.1-0.1c0.1-0.1,0.3-0.2,0.4-0.3c0.1-0.1,0.3-0.2,0.4-0.3l0,0c0.2-0.2,0.5-0.4,0.7-0.6c0.1-0.1,0.2-0.1,0.2-0.2l-5.5-5.2
		c-6.1,4.8-13.8,7.4-21.8,7.4c-18.5,0-33.6-14-33.6-31.3c0-8.4,3.5-16.3,10-22.2c3-2.8,6.6-5,10.5-6.6l-5.9-5.5
		c-3.7,1.8-7.2,4.1-10.2,6.9c-7.9,7.3-12.2,17-12.2,27.3C30.5,71.3,34.8,80.9,42.6,88.2z"/>
	<linearGradient id="SVGID_3_" gradientUnits="userSpaceOnUse" x1="85.6211" y1="91.5281" x2="57.4833" y2="-0.5065">
		<stop  offset="0" style="stop-color:#AD2955;stop-opacity:0.78"/>
		<stop  offset="0.1162" style="stop-color:#BE324B;stop-opacity:0.8455"/>
		<stop  offset="0.3904" style="stop-color:#E6492B"/>
		<stop  offset="0.9412" style="stop-color:#C73535;stop-opacity:0.73"/>
	</linearGradient>
	<path fill="url(#SVGID_3_)" d="M119,51.4c0-13.7-5.7-26.5-16.1-36.2C92.5,5.5,78.7,0.2,64,0.2c-14.7,0-28.6,5.3-39,15.1
		c-3,2.8-5.6,5.8-7.8,9.1l5.7,5.3c1.6-2.6,3.5-5.1,5.7-7.4l-0.1-0.1l2-1.9C39.5,12.1,51.4,7.5,64,7.5c12.6,0,24.4,4.6,33.3,12.8
		c8.9,8.3,13.8,19.3,13.8,31c0,0.9,0,1.7-0.1,2.6c0,0.1,0,0.2,0,0.4c0,0.1,0,0.2,0,0.3l0,0c0,0.2,0,0.4,0,0.5c0,0.2,0,0.3,0,0.5
		c0,0.2-0.1,0.5-0.1,0.7c0,0.1,0,0.3-0.1,0.4c0,0.2-0.1,0.4-0.1,0.6c0,0.1,0,0.2-0.1,0.4c0,0.2-0.1,0.4-0.1,0.6c0,0.1,0,0.2-0.1,0.4
		c0,0.1,0,0.2-0.1,0.3c0,0.1-0.1,0.3-0.1,0.5c0,0.1-0.1,0.3-0.1,0.4c0,0.2-0.1,0.3-0.1,0.5c-0.3,1.2-0.6,2.4-1,3.6
		c-0.1,0.2-0.1,0.3-0.2,0.5c0,0.1-0.1,0.3-0.1,0.4c-0.3,0.8-0.6,1.5-0.9,2.3c0,0.1-0.1,0.2-0.1,0.3c-0.1,0.1-0.1,0.2-0.2,0.4
		c-0.1,0.1-0.1,0.3-0.2,0.5c-0.1,0.1-0.1,0.3-0.2,0.4l0,0.1c-0.1,0.2-0.2,0.4-0.3,0.5c-0.1,0.1-0.1,0.3-0.2,0.4
		c-1.2,2.4-2.6,4.7-4.3,6.9l-0.3,0.3c-0.2,0.2-0.4,0.5-0.6,0.7c-0.1,0.1-0.2,0.2-0.3,0.3c-0.2,0.2-0.4,0.5-0.6,0.7
		c-0.1,0.1-0.2,0.3-0.4,0.4c-0.1,0.1-0.2,0.3-0.3,0.4l0,0c-0.1,0.1-0.3,0.3-0.4,0.4c-0.1,0.2-0.3,0.3-0.4,0.5l5.5,5.2
		C113.9,76.3,119,64.1,119,51.4z"/>
	<linearGradient id="SVGID_4_" gradientUnits="userSpaceOnUse" x1="86.4838" y1="84.5672" x2="63.9198" y2="10.7634">
		<stop  offset="0" style="stop-color:#AD2955;stop-opacity:0.78"/>
		<stop  offset="0.1162" style="stop-color:#BE324B;stop-opacity:0.8455"/>
		<stop  offset="0.3904" style="stop-color:#E6492B"/>
		<stop  offset="0.9412" style="stop-color:#C73535;stop-opacity:0.73"/>
	</linearGradient>
	<path fill="url(#SVGID_4_)" d="M77.2,80.1l5.9,5.5c3.7-1.8,7.2-4.1,10.2-6.9c7.9-7.3,12.2-17,12.2-27.4c0-10.3-4.3-20-12.1-27.3
		C85.5,16.8,75.1,12.8,64,12.8c-0.3,0-0.7,0-1,0c-0.2,0-0.3,0-0.5,0h0c-0.3,0-0.5,0-0.8,0c-0.2,0-0.4,0-0.6,0c-0.1,0-0.2,0-0.3,0
		l-0.1,0c-0.2,0-0.4,0-0.6,0c-0.2,0-0.3,0-0.5,0c-0.1,0-0.2,0-0.3,0l-0.2,0c0,0,0,0-0.1,0c-0.1,0-0.3,0-0.4,0
		c-0.5,0.1-1,0.1-1.5,0.2c-0.1,0-0.3,0-0.4,0.1l0,0c-0.1,0-0.2,0-0.3,0.1l-0.1,0c-0.1,0-0.3,0-0.4,0.1c-0.4,0.1-0.7,0.1-1.1,0.2
		c-0.2,0.1-0.5,0.1-0.7,0.2l0,0c-0.1,0-0.1,0-0.2,0c-0.2,0-0.3,0.1-0.5,0.1c-0.1,0-0.3,0.1-0.4,0.1c-0.1,0-0.2,0.1-0.3,0.1
		c-0.1,0-0.2,0-0.2,0.1l-0.1,0c-0.1,0-0.2,0.1-0.3,0.1c-0.2,0-0.3,0.1-0.5,0.1c-0.1,0-0.2,0.1-0.3,0.1c-0.3,0.1-0.7,0.2-1,0.3
		c-0.1,0-0.2,0.1-0.3,0.1l-0.1,0c-0.1,0-0.2,0.1-0.3,0.1c-0.2,0.1-0.3,0.1-0.5,0.2c-0.1,0-0.2,0.1-0.4,0.1c-0.2,0.1-0.4,0.2-0.6,0.2
		L47.5,16c-0.2,0.1-0.4,0.1-0.5,0.2c-0.1,0-0.2,0.1-0.3,0.1l-0.1,0c-0.1,0.1-0.3,0.1-0.4,0.2c-0.9,0.4-1.7,0.8-2.6,1.2
		c-0.1,0-0.2,0.1-0.3,0.1c-0.2,0.1-0.4,0.2-0.5,0.3l-0.6,0.3c-0.1,0.1-0.3,0.1-0.4,0.2c-0.4,0.2-0.9,0.5-1.3,0.8
		c-0.1,0.1-0.2,0.2-0.4,0.2l-0.1,0.1C40,19.9,39.9,20,39.8,20l0,0c-0.1,0-0.1,0.1-0.2,0.1l0,0c-0.1,0.1-0.2,0.2-0.4,0.2
		c-0.1,0.1-0.3,0.2-0.4,0.3c-0.1,0.1-0.2,0.1-0.2,0.2L38.5,21c-0.1,0.1-0.3,0.2-0.4,0.3c-0.1,0.1-0.3,0.2-0.4,0.3
		c-0.3,0.2-0.5,0.4-0.7,0.6c-0.1,0.1-0.2,0.1-0.2,0.2l5.5,5.2c6.1-4.8,13.8-7.5,21.8-7.5c18.5,0,33.6,14,33.6,31.3
		c0,8.4-3.5,16.3-10,22.2C84.7,76.3,81.1,78.6,77.2,80.1z"/>
	<linearGradient id="SVGID_5_" gradientUnits="userSpaceOnUse" x1="20.837" y1="134.184" x2="17.5799" y2="123.5305">
		<stop  offset="0" style="stop-color:#AD2955;stop-opacity:0.78"/>
		<stop  offset="0.1162" style="stop-color:#BE324B;stop-opacity:0.8455"/>
		<stop  offset="0.3904" style="stop-color:#E6492B"/>
		<stop  offset="0.9412" style="stop-color:#C73535;stop-opacity:0.73"/>
	</linearGradient>
	<path fill="url(#SVGID_5_)" d="M22.5,130.4c-0.2,0.9-0.6,1.5-1.2,2c-0.6,0.4-1.3,0.7-2.1,0.7c-0.7,0-1.3-0.2-1.9-0.5
		c-0.6-0.3-1-0.8-1.3-1.5c-0.3-0.7-0.4-1.4-0.4-2.3c0-0.7,0.1-1.3,0.4-2c0.2-0.6,0.6-1.1,1.2-1.5c0.6-0.4,1.3-0.6,2.2-0.6
		c0.8,0,1.4,0.2,1.9,0.5c0.5,0.3,0.9,0.9,1.1,1.6l0,0.1l1.7-0.4l0-0.1c-0.3-1-0.9-1.8-1.7-2.3c-0.8-0.5-1.8-0.8-3-0.8
		c-1,0-2,0.2-2.8,0.6c-0.9,0.4-1.5,1.1-2,1.9c-0.5,0.8-0.7,1.8-0.7,2.9c0,1,0.2,2,0.6,2.9c0.4,0.9,1,1.6,1.8,2
		c0.8,0.5,1.8,0.7,3.1,0.7c1.2,0,2.3-0.3,3.1-0.9c0.9-0.6,1.4-1.5,1.8-2.7l0-0.1L22.5,130.4L22.5,130.4z"/>
	<linearGradient id="SVGID_6_" gradientUnits="userSpaceOnUse" x1="36.8467" y1="134.1418" x2="33.5783" y2="123.4513">
		<stop  offset="0" style="stop-color:#AD2955;stop-opacity:0.78"/>
		<stop  offset="0.1162" style="stop-color:#BE324B;stop-opacity:0.8455"/>
		<stop  offset="0.3904" style="stop-color:#E6492B"/>
		<stop  offset="0.9412" style="stop-color:#C73535;stop-opacity:0.73"/>
	</linearGradient>
	<path fill="url(#SVGID_6_)" d="M38.2,124c-0.9-0.5-1.9-0.7-2.9-0.7c-1.7,0-3,0.5-4.1,1.5c-1,1-1.6,2.4-1.6,4.2
		c0,0.9,0.2,1.8,0.7,2.7c0.4,0.8,1.1,1.5,2,2c0.9,0.5,1.9,0.7,3,0.7c1,0,2-0.2,2.8-0.7c0.9-0.4,1.6-1.1,2.1-2
		c0.5-0.8,0.7-1.8,0.7-2.9c0-1.1-0.2-2-0.7-2.9C39.7,125.1,39,124.5,38.2,124z M38,131.9c-0.7,0.7-1.7,1.1-2.8,1.1
		c-1.1,0-2-0.4-2.7-1.1c-0.7-0.7-1.1-1.7-1.1-2.9c0-1.5,0.4-2.7,1.1-3.3c0.8-0.7,1.7-1,2.7-1c0.8,0,1.4,0.2,2,0.5
		c0.6,0.3,1,0.8,1.3,1.4c0.3,0.6,0.5,1.4,0.5,2.2C39,130.1,38.7,131.2,38,131.9z"/>
	<linearGradient id="SVGID_7_" gradientUnits="userSpaceOnUse" x1="54.9175" y1="133.8014" x2="51.577" y2="122.8748">
		<stop  offset="0" style="stop-color:#AD2955;stop-opacity:0.78"/>
		<stop  offset="0.1162" style="stop-color:#BE324B;stop-opacity:0.8455"/>
		<stop  offset="0.3904" style="stop-color:#E6492B"/>
		<stop  offset="0.9412" style="stop-color:#C73535;stop-opacity:0.73"/>
	</linearGradient>
	<path fill="url(#SVGID_7_)" d="M55.7,123.7L53,131c-0.2,0.6-0.4,1-0.5,1.4l-0.5-1.3l-2.7-7.5h-0.2v3.9l2.5,6.8h1.5l2.6-6.8V123.7z"
		/>
	<linearGradient id="SVGID_8_" gradientUnits="userSpaceOnUse" x1="49.2109" y1="134.1175" x2="46.0744" y2="123.8585">
		<stop  offset="0" style="stop-color:#AD2955;stop-opacity:0.78"/>
		<stop  offset="0.1162" style="stop-color:#BE324B;stop-opacity:0.8455"/>
		<stop  offset="0.3904" style="stop-color:#E6492B"/>
		<stop  offset="0.9412" style="stop-color:#C73535;stop-opacity:0.73"/>
	</linearGradient>
	<rect x="46.8" y="123.6" fill="url(#SVGID_8_)" width="1.7" height="10.7"/>
	<linearGradient id="SVGID_9_" gradientUnits="userSpaceOnUse" x1="58.7517" y1="134.1151" x2="55.6167" y2="123.8608">
		<stop  offset="0" style="stop-color:#AD2955;stop-opacity:0.78"/>
		<stop  offset="0.1162" style="stop-color:#BE324B;stop-opacity:0.8455"/>
		<stop  offset="0.3904" style="stop-color:#E6492B"/>
		<stop  offset="0.9412" style="stop-color:#C73535;stop-opacity:0.73"/>
	</linearGradient>
	<rect x="56.4" y="123.6" fill="url(#SVGID_9_)" width="1.7" height="10.7"/>
	<linearGradient id="SVGID_10_" gradientUnits="userSpaceOnUse" x1="66.4123" y1="134.1247" x2="63.2714" y2="123.8513">
		<stop  offset="0" style="stop-color:#AD2955;stop-opacity:0.78"/>
		<stop  offset="0.1162" style="stop-color:#BE324B;stop-opacity:0.8455"/>
		<stop  offset="0.3904" style="stop-color:#E6492B"/>
		<stop  offset="0.9412" style="stop-color:#C73535;stop-opacity:0.73"/>
	</linearGradient>
	<rect x="64" y="123.6" fill="url(#SVGID_10_)" width="1.7" height="10.7"/>
	<linearGradient id="SVGID_11_" gradientUnits="userSpaceOnUse" x1="70.2004" y1="129.9727" x2="68.0963" y2="123.0905">
		<stop  offset="0" style="stop-color:#AD2955;stop-opacity:0.78"/>
		<stop  offset="0.1162" style="stop-color:#BE324B;stop-opacity:0.8455"/>
		<stop  offset="0.3904" style="stop-color:#E6492B"/>
		<stop  offset="0.9412" style="stop-color:#C73535;stop-opacity:0.73"/>
	</linearGradient>
	<path fill="url(#SVGID_11_)" d="M72.6,125.3c-0.3-0.4-0.6-0.8-1-1c-0.4-0.3-0.9-0.4-1.4-0.5c-0.4-0.1-1-0.1-1.8-0.1h-2.1v1.4h2.2
		c0.7,0,1.1,0,1.4,0.1c0.4,0.1,0.7,0.3,0.9,0.6c0.2,0.3,0.3,0.7,0.3,1.1c0,0.6-0.2,1-0.6,1.3c-0.4,0.3-1.1,0.5-2,0.5h-2.3v1.4h2.3
		c1.6,0,2.8-0.3,3.4-1c0.6-0.6,1-1.4,1-2.3C73,126.2,72.9,125.7,72.6,125.3z"/>
	<linearGradient id="SVGID_12_" gradientUnits="userSpaceOnUse" x1="84.9704" y1="135.8911" x2="81.4141" y2="124.2589">
		<stop  offset="0" style="stop-color:#AD2955;stop-opacity:0.78"/>
		<stop  offset="0.1162" style="stop-color:#BE324B;stop-opacity:0.8455"/>
		<stop  offset="0.3904" style="stop-color:#E6492B"/>
		<stop  offset="0.9412" style="stop-color:#C73535;stop-opacity:0.73"/>
	</linearGradient>
	<path fill="url(#SVGID_12_)" d="M83.5,123.6L79,134.3h1.8l0.5-1.3h0l1.3-3.3l0.3-0.7l1-2.4h0c0.2-0.5,0.4-1.1,0.5-1.6
		c0.2,0.5,0.4,1.1,0.7,1.8l1.2,2.8h-3l-0.5,1.3h4l1.3,3.2h2l-4.8-10.7H83.5z"/>
	<linearGradient id="SVGID_13_" gradientUnits="userSpaceOnUse" x1="98.2048" y1="134.1079" x2="95.0741" y2="123.868">
		<stop  offset="0" style="stop-color:#AD2955;stop-opacity:0.78"/>
		<stop  offset="0.1162" style="stop-color:#BE324B;stop-opacity:0.8455"/>
		<stop  offset="0.3904" style="stop-color:#E6492B"/>
		<stop  offset="0.9412" style="stop-color:#C73535;stop-opacity:0.73"/>
	</linearGradient>
	<rect x="95.8" y="123.6" fill="url(#SVGID_13_)" width="1.6" height="10.7"/>
	<linearGradient id="SVGID_14_" gradientUnits="userSpaceOnUse" x1="105.8322" y1="134.1223" x2="102.6957" y2="123.8632">
		<stop  offset="0" style="stop-color:#AD2955;stop-opacity:0.78"/>
		<stop  offset="0.1162" style="stop-color:#BE324B;stop-opacity:0.8455"/>
		<stop  offset="0.3904" style="stop-color:#E6492B"/>
		<stop  offset="0.9412" style="stop-color:#C73535;stop-opacity:0.73"/>
	</linearGradient>
	<polygon fill="url(#SVGID_14_)" points="103.4,131.7 103.4,131.6 103.4,134.3 105.1,134.3 105.1,123.6 103.4,123.6 	"/>
	<linearGradient id="SVGID_15_" gradientUnits="userSpaceOnUse" x1="101.9163" y1="133.8013" x2="98.9387" y2="124.0619">
		<stop  offset="0" style="stop-color:#AD2955;stop-opacity:0.78"/>
		<stop  offset="0.1162" style="stop-color:#BE324B;stop-opacity:0.8455"/>
		<stop  offset="0.3904" style="stop-color:#E6492B"/>
		<stop  offset="0.9412" style="stop-color:#C73535;stop-opacity:0.73"/>
	</linearGradient>
	<polygon fill="url(#SVGID_15_)" points="98.1,127.1 102.8,133.5 102.8,130.8 98.1,124.3 	"/>
	<linearGradient id="SVGID_16_" gradientUnits="userSpaceOnUse" x1="120.2059" y1="133.4714" x2="117.4397" y2="124.4235">
		<stop  offset="0" style="stop-color:#AD2955;stop-opacity:0.78"/>
		<stop  offset="0.1162" style="stop-color:#BE324B;stop-opacity:0.8455"/>
		<stop  offset="0.3904" style="stop-color:#E6492B"/>
		<stop  offset="0.9412" style="stop-color:#C73535;stop-opacity:0.73"/>
	</linearGradient>
	<path fill="url(#SVGID_16_)" d="M120,123.6l-2.3,3.1c-0.4,0.6-0.8,1.2-1.2,1.7v0l-1,1.3v4.5h1.7v-4.5l4.7-6.2H120z"/>
	<linearGradient id="SVGID_17_" gradientUnits="userSpaceOnUse" x1="114.7761" y1="129.4563" x2="112.8328" y2="123.1">
		<stop  offset="0" style="stop-color:#AD2955;stop-opacity:0.78"/>
		<stop  offset="0.1162" style="stop-color:#BE324B;stop-opacity:0.8455"/>
		<stop  offset="0.3904" style="stop-color:#E6492B"/>
		<stop  offset="0.9412" style="stop-color:#C73535;stop-opacity:0.73"/>
	</linearGradient>
	<polygon fill="url(#SVGID_17_)" points="116.2,127.9 115.5,126.9 113.2,123.6 111.1,123.6 115.2,129.3 	"/>
	<linearGradient id="SVGID_18_" gradientUnits="userSpaceOnUse" x1="16.3744" y1="142.8189" x2="15.137" y2="138.7713">
		<stop  offset="0" style="stop-color:#AD2955;stop-opacity:0.78"/>
		<stop  offset="0.1162" style="stop-color:#BE324B;stop-opacity:0.8455"/>
		<stop  offset="0.3904" style="stop-color:#E6492B"/>
		<stop  offset="0.9412" style="stop-color:#C73535;stop-opacity:0.73"/>
	</linearGradient>
	<polygon fill="url(#SVGID_18_)" points="13.9,139.7 15,139.7 15,143 15.7,143 15.7,139.7 16.8,139.7 16.8,139.2 13.9,139.2 	"/>
	<linearGradient id="SVGID_19_" gradientUnits="userSpaceOnUse" x1="21.8237" y1="143.5378" x2="20.5632" y2="139.4149">
		<stop  offset="0" style="stop-color:#AD2955;stop-opacity:0.78"/>
		<stop  offset="0.1162" style="stop-color:#BE324B;stop-opacity:0.8455"/>
		<stop  offset="0.3904" style="stop-color:#E6492B"/>
		<stop  offset="0.9412" style="stop-color:#C73535;stop-opacity:0.73"/>
	</linearGradient>
	<path fill="url(#SVGID_19_)" d="M21.4,139.2l-1.5,3.9h0.7l0.3-0.9h1.6l0.3,0.9h0.7l-1.5-3.9H21.4z M21.1,141.6l0.6-1.7h0l0.6,1.7
		H21.1z"/>
	<linearGradient id="SVGID_20_" gradientUnits="userSpaceOnUse" x1="29.2289" y1="142.9735" x2="28.0814" y2="139.2202">
		<stop  offset="0" style="stop-color:#AD2955;stop-opacity:0.78"/>
		<stop  offset="0.1162" style="stop-color:#BE324B;stop-opacity:0.8455"/>
		<stop  offset="0.3904" style="stop-color:#E6492B"/>
		<stop  offset="0.9412" style="stop-color:#C73535;stop-opacity:0.73"/>
	</linearGradient>
	<path fill="url(#SVGID_20_)" d="M28.7,141.5h0.9v0.2c0,0.2-0.1,0.4-0.2,0.6c-0.2,0.2-0.4,0.2-0.6,0.2c-0.1,0-0.3,0-0.4-0.1
		c-0.1,0-0.2-0.1-0.3-0.2c-0.1-0.1-0.1-0.2-0.2-0.3c0-0.1,0-0.4,0-0.8c0-0.4,0-0.6,0-0.8c0-0.1,0.1-0.2,0.2-0.3
		c0.1-0.1,0.2-0.1,0.3-0.2c0.1-0.1,0.2-0.1,0.4-0.1c0.2,0,0.4,0.1,0.5,0.2c0.1,0.1,0.2,0.2,0.3,0.4h0.7c-0.1-0.3-0.2-0.6-0.5-0.8
		c-0.3-0.2-0.6-0.3-1-0.3c-0.3,0-0.6,0.1-0.8,0.2c-0.2,0.1-0.4,0.3-0.5,0.5c-0.1,0.1-0.1,0.2-0.1,0.4c0,0.2,0,0.5,0,0.9
		c0,0.4,0,0.7,0,0.9c0,0.1,0,0.2,0.1,0.2c0,0.1,0.1,0.1,0.1,0.2c0.1,0.2,0.3,0.3,0.5,0.5c0.2,0.1,0.5,0.2,0.8,0.2
		c0.4,0,0.8-0.1,1.1-0.4c0.3-0.3,0.4-0.6,0.4-1v-0.8h-1.5V141.5z"/>
	<linearGradient id="SVGID_21_" gradientUnits="userSpaceOnUse" x1="35.9291" y1="143.3883" x2="34.6158" y2="139.0927">
		<stop  offset="0" style="stop-color:#AD2955;stop-opacity:0.78"/>
		<stop  offset="0.1162" style="stop-color:#BE324B;stop-opacity:0.8455"/>
		<stop  offset="0.3904" style="stop-color:#E6492B"/>
		<stop  offset="0.9412" style="stop-color:#C73535;stop-opacity:0.73"/>
	</linearGradient>
	<polygon fill="url(#SVGID_21_)" points="35,139.2 34.4,139.2 34.4,143 37.1,143 37.1,142.5 35,142.5 	"/>
	<linearGradient id="SVGID_22_" gradientUnits="userSpaceOnUse" x1="42.0694" y1="142.962" x2="40.9298" y2="139.2347">
		<stop  offset="0" style="stop-color:#AD2955;stop-opacity:0.78"/>
		<stop  offset="0.1162" style="stop-color:#BE324B;stop-opacity:0.8455"/>
		<stop  offset="0.3904" style="stop-color:#E6492B"/>
		<stop  offset="0.9412" style="stop-color:#C73535;stop-opacity:0.73"/>
	</linearGradient>
	<rect x="41.2" y="139.2" fill="url(#SVGID_22_)" width="0.6" height="3.9"/>
	<linearGradient id="SVGID_23_" gradientUnits="userSpaceOnUse" x1="48.4535" y1="143.311" x2="47.1005" y2="138.8857">
		<stop  offset="0" style="stop-color:#AD2955;stop-opacity:0.78"/>
		<stop  offset="0.1162" style="stop-color:#BE324B;stop-opacity:0.8455"/>
		<stop  offset="0.3904" style="stop-color:#E6492B"/>
		<stop  offset="0.9412" style="stop-color:#C73535;stop-opacity:0.73"/>
	</linearGradient>
	<polygon fill="url(#SVGID_23_)" points="48.7,141.9 48.7,141.9 46.8,139.2 46.2,139.2 46.2,143 46.8,143 46.8,140.3 46.9,140.3 
		48.7,143 49.3,143 49.3,139.2 48.7,139.2 	"/>
	<linearGradient id="SVGID_24_" gradientUnits="userSpaceOnUse" x1="55.73" y1="143.2462" x2="54.4167" y2="138.9505">
		<stop  offset="0" style="stop-color:#AD2955;stop-opacity:0.78"/>
		<stop  offset="0.1162" style="stop-color:#BE324B;stop-opacity:0.8455"/>
		<stop  offset="0.3904" style="stop-color:#E6492B"/>
		<stop  offset="0.9412" style="stop-color:#C73535;stop-opacity:0.73"/>
	</linearGradient>
	<polygon fill="url(#SVGID_24_)" points="53.7,143 56.4,143 56.4,142.5 54.4,142.5 54.4,141.3 56.1,141.3 56.1,140.8 54.4,140.8 
		54.4,139.7 56.4,139.7 56.4,139.2 53.7,139.2 	"/>
	<linearGradient id="SVGID_25_" gradientUnits="userSpaceOnUse" x1="67.36" y1="142.9736" x2="66.2124" y2="139.2202">
		<stop  offset="0" style="stop-color:#AD2955;stop-opacity:0.78"/>
		<stop  offset="0.1162" style="stop-color:#BE324B;stop-opacity:0.8455"/>
		<stop  offset="0.3904" style="stop-color:#E6492B"/>
		<stop  offset="0.9412" style="stop-color:#C73535;stop-opacity:0.73"/>
	</linearGradient>
	<path fill="url(#SVGID_25_)" d="M66.8,141.5h0.9v0.2c0,0.2-0.1,0.4-0.2,0.6c-0.2,0.2-0.4,0.2-0.6,0.2c-0.1,0-0.3,0-0.4-0.1
		c-0.1,0-0.2-0.1-0.3-0.2c-0.1-0.1-0.1-0.2-0.2-0.3c0-0.1,0-0.4,0-0.8c0-0.4,0-0.6,0-0.8c0-0.1,0.1-0.2,0.2-0.3
		c0.1-0.1,0.2-0.1,0.3-0.2c0.1-0.1,0.2-0.1,0.4-0.1c0.2,0,0.4,0.1,0.5,0.2c0.1,0.1,0.2,0.2,0.3,0.4h0.7c-0.1-0.3-0.2-0.6-0.5-0.8
		c-0.3-0.2-0.6-0.3-1-0.3c-0.3,0-0.6,0.1-0.8,0.2c-0.2,0.1-0.4,0.3-0.5,0.5c-0.1,0.1-0.1,0.2-0.1,0.4c0,0.2,0,0.5,0,0.9
		c0,0.4,0,0.7,0,0.9c0,0.1,0,0.2,0.1,0.2c0,0.1,0.1,0.1,0.1,0.2c0.1,0.2,0.3,0.3,0.5,0.5c0.2,0.1,0.5,0.2,0.8,0.2
		c0.4,0,0.8-0.1,1.1-0.4c0.3-0.3,0.4-0.6,0.4-1v-0.8h-1.5V141.5z"/>
	<linearGradient id="SVGID_26_" gradientUnits="userSpaceOnUse" x1="74.4601" y1="142.9745" x2="73.3117" y2="139.2184">
		<stop  offset="0" style="stop-color:#AD2955;stop-opacity:0.78"/>
		<stop  offset="0.1162" style="stop-color:#BE324B;stop-opacity:0.8455"/>
		<stop  offset="0.3904" style="stop-color:#E6492B"/>
		<stop  offset="0.9412" style="stop-color:#C73535;stop-opacity:0.73"/>
	</linearGradient>
	<path fill="url(#SVGID_26_)" d="M75.2,139.8c-0.1-0.2-0.3-0.3-0.5-0.5c-0.2-0.1-0.5-0.2-0.8-0.2c-0.3,0-0.6,0.1-0.8,0.2
		c-0.2,0.1-0.4,0.3-0.5,0.5c-0.1,0.1-0.1,0.2-0.1,0.4c0,0.2,0,0.5,0,0.9c0,0.4,0,0.7,0,0.9c0,0.1,0,0.2,0.1,0.2
		c0,0.1,0.1,0.1,0.1,0.2c0.1,0.2,0.3,0.3,0.5,0.5c0.2,0.1,0.5,0.2,0.8,0.2c0.3,0,0.6-0.1,0.8-0.2c0.2-0.1,0.4-0.3,0.5-0.5
		c0.1-0.1,0.1-0.2,0.1-0.4c0-0.2,0-0.5,0-0.9c0-0.5,0-0.8,0-0.9C75.3,140,75.3,139.9,75.2,139.8z M74.7,141.9c0,0.1-0.1,0.2-0.2,0.3
		c-0.1,0.1-0.1,0.1-0.3,0.2c-0.1,0.1-0.2,0.1-0.4,0.1c-0.1,0-0.3,0-0.4-0.1c-0.1,0-0.2-0.1-0.3-0.2c-0.1-0.1-0.1-0.2-0.2-0.3
		c0-0.1,0-0.4,0-0.8c0-0.4,0-0.6,0-0.8c0-0.1,0.1-0.2,0.2-0.3c0.1-0.1,0.2-0.1,0.3-0.2c0.1-0.1,0.2-0.1,0.4-0.1c0.2,0,0.3,0,0.4,0.1
		c0.1,0.1,0.2,0.1,0.3,0.2c0.1,0.1,0.1,0.2,0.2,0.3c0,0.1,0,0.4,0,0.8C74.7,141.5,74.7,141.7,74.7,141.9z"/>
	<linearGradient id="SVGID_27_" gradientUnits="userSpaceOnUse" x1="81.6182" y1="143.2462" x2="80.3049" y2="138.9505">
		<stop  offset="0" style="stop-color:#AD2955;stop-opacity:0.78"/>
		<stop  offset="0.1162" style="stop-color:#BE324B;stop-opacity:0.8455"/>
		<stop  offset="0.3904" style="stop-color:#E6492B"/>
		<stop  offset="0.9412" style="stop-color:#C73535;stop-opacity:0.73"/>
	</linearGradient>
	<polygon fill="url(#SVGID_27_)" points="79.6,143 82.3,143 82.3,142.5 80.3,142.5 80.3,141.3 82,141.3 82,140.8 80.3,140.8 
		80.3,139.7 82.3,139.7 82.3,139.2 79.6,139.2 	"/>
	<linearGradient id="SVGID_28_" gradientUnits="userSpaceOnUse" x1="88.1259" y1="143.0393" x2="86.9626" y2="139.2343">
		<stop  offset="0" style="stop-color:#AD2955;stop-opacity:0.78"/>
		<stop  offset="0.1162" style="stop-color:#BE324B;stop-opacity:0.8455"/>
		<stop  offset="0.3904" style="stop-color:#E6492B"/>
		<stop  offset="0.9412" style="stop-color:#C73535;stop-opacity:0.73"/>
	</linearGradient>
	<path fill="url(#SVGID_28_)" d="M88,140.8c-0.2,0-0.4,0-0.5-0.1c-0.2,0-0.4-0.1-0.4-0.2c-0.1-0.1-0.1-0.2-0.1-0.3
		c0-0.2,0.1-0.3,0.2-0.4c0.1-0.1,0.3-0.1,0.5-0.1c0.4,0,0.7,0.1,1,0.3l0.4-0.5c-0.4-0.3-0.8-0.4-1.4-0.4c-0.4,0-0.8,0.1-1,0.3
		c-0.2,0.2-0.4,0.5-0.4,0.8c0,0.3,0.1,0.5,0.3,0.7c0.2,0.2,0.5,0.3,0.8,0.4c0.2,0,0.4,0.1,0.6,0.1c0.4,0.1,0.5,0.2,0.5,0.5
		c0,0.4-0.3,0.5-0.8,0.5c-0.5,0-0.9-0.1-1.2-0.4l-0.4,0.4c0.4,0.4,1,0.5,1.6,0.5c1,0,1.4-0.4,1.5-1.1c0-0.3-0.1-0.5-0.3-0.7
		C88.6,141,88.4,140.9,88,140.8z"/>
	<linearGradient id="SVGID_29_" gradientUnits="userSpaceOnUse" x1="100.3383" y1="143.2814" x2="99.0035" y2="138.9153">
		<stop  offset="0" style="stop-color:#AD2955;stop-opacity:0.78"/>
		<stop  offset="0.1162" style="stop-color:#BE324B;stop-opacity:0.8455"/>
		<stop  offset="0.3904" style="stop-color:#E6492B"/>
		<stop  offset="0.9412" style="stop-color:#C73535;stop-opacity:0.73"/>
	</linearGradient>
	<polygon fill="url(#SVGID_29_)" points="100.5,140.8 98.8,140.8 98.8,139.2 98.2,139.2 98.2,143 98.8,143 98.8,141.3 100.5,141.3 
		100.5,143 101.1,143 101.1,139.2 100.5,139.2 	"/>
	<linearGradient id="SVGID_30_" gradientUnits="userSpaceOnUse" x1="107.5182" y1="143.2462" x2="106.2049" y2="138.9505">
		<stop  offset="0" style="stop-color:#AD2955;stop-opacity:0.78"/>
		<stop  offset="0.1162" style="stop-color:#BE324B;stop-opacity:0.8455"/>
		<stop  offset="0.3904" style="stop-color:#E6492B"/>
		<stop  offset="0.9412" style="stop-color:#C73535;stop-opacity:0.73"/>
	</linearGradient>
	<polygon fill="url(#SVGID_30_)" points="105.5,143 108.2,143 108.2,142.5 106.2,142.5 106.2,141.3 107.9,141.3 107.9,140.8 
		106.2,140.8 106.2,139.7 108.2,139.7 108.2,139.2 105.5,139.2 	"/>
	<linearGradient id="SVGID_31_" gradientUnits="userSpaceOnUse" x1="114.3048" y1="143.3628" x2="112.9581" y2="138.9582">
		<stop  offset="0" style="stop-color:#AD2955;stop-opacity:0.78"/>
		<stop  offset="0.1162" style="stop-color:#BE324B;stop-opacity:0.8455"/>
		<stop  offset="0.3904" style="stop-color:#E6492B"/>
		<stop  offset="0.9412" style="stop-color:#C73535;stop-opacity:0.73"/>
	</linearGradient>
	<path fill="url(#SVGID_31_)" d="M115.2,140.2c0-0.4-0.1-0.6-0.4-0.8c-0.2-0.2-0.5-0.3-0.9-0.3h-1.6v3.9h0.6v-1.7h0.8l0.9,1.7h0.8
		l-1-1.7C114.9,141.1,115.2,140.8,115.2,140.2z M112.9,140.9v-1.2h1c0.2,0,0.4,0,0.5,0.1c0.1,0.1,0.2,0.2,0.2,0.4
		c0,0.2-0.1,0.3-0.2,0.4c-0.1,0.1-0.3,0.2-0.5,0.2H112.9z"/>
	<linearGradient id="SVGID_32_" gradientUnits="userSpaceOnUse" x1="121.3899" y1="143.2462" x2="120.0765" y2="138.9505">
		<stop  offset="0" style="stop-color:#AD2955;stop-opacity:0.78"/>
		<stop  offset="0.1162" style="stop-color:#BE324B;stop-opacity:0.8455"/>
		<stop  offset="0.3904" style="stop-color:#E6492B"/>
		<stop  offset="0.9412" style="stop-color:#C73535;stop-opacity:0.73"/>
	</linearGradient>
	<polygon fill="url(#SVGID_32_)" points="119.4,143 122.1,143 122.1,142.5 120,142.5 120,141.3 121.8,141.3 121.8,140.8 120,140.8 
		120,139.7 122.1,139.7 122.1,139.2 119.4,139.2 	"/>
</g>
</svg>
